<svg width="181" height="190" viewBox="0 0 181 190" fill="none" xmlns="http://www.w3.org/2000/svg">
<g opacity="0.7">
<g clip-path="url(#clip0_713_473)">
<path d="M180.92 58.9475C180.92 58.0942 180.837 56.5306 178.887 55.4283C178.86 55.4126 93.1096 5.39402 93.1096 5.39402C91.854 4.65774 90.301 4.65774 89.0442 5.38616L16.5087 47.4252C15.6442 47.9269 14.4657 48.6918 14.4801 50.9486C14.4801 50.9655 14.7929 162.546 14.7929 162.546C14.7966 163.995 15.5659 165.33 16.8136 166.053L102.593 216.093C105.014 217.182 106.218 216.369 107.412 215.68L142.941 195.086C144.2 194.354 144.974 193.007 144.97 191.546L144.743 110.236L178.97 90.3986C180.231 89.6677 181.003 88.3193 181 86.86L180.92 58.9475ZM22.9001 160.188L22.6145 58.0413L100.276 103.348L100.567 205.492L22.9001 160.188ZM91.0653 13.6209L168.768 58.9475L104.334 96.2922L26.6329 50.9655L91.0653 13.6209ZM172.875 86.86L172.875 84.5237L138.65 104.36C137.388 105.093 136.617 106.44 136.62 107.901L136.846 189.211L136.834 184.857L136.626 110.236L172.875 86.86Z" fill="white"/>
</g>
</g>
<defs>
<clipPath id="clip0_713_473">
<path d="M0 16C0 7.16344 7.16344 0 16 0H165C173.837 0 181 7.16344 181 16V174C181 182.837 173.837 190 165 190H0V16Z" fill="white"/>
</clipPath>
</defs>
</svg>
