<svg width="62" height="62" viewBox="0 0 62 62" fill="none" xmlns="http://www.w3.org/2000/svg">
<g clip-path="url(#clip0_713_1074)">
<path d="M9.55469 29.0938C10.9965 29.0938 12.3014 28.5153 13.2657 27.5863L18.5559 30.2312C18.5293 30.4466 18.4902 30.6584 18.4902 30.8809C18.4902 33.837 20.8954 36.2422 23.8516 36.2422C26.8077 36.2422 29.2129 33.837 29.2129 30.8809C29.2129 30.0557 29.01 29.2832 28.6754 28.5841L35.8517 21.4078C36.5507 21.7424 37.3233 21.9453 38.1484 21.9453C41.1046 21.9453 43.5098 19.5402 43.5098 16.584C43.5098 16.0274 43.4004 15.501 43.2422 14.9961L49.4775 10.3207C50.3282 10.889 51.3479 11.2227 52.4453 11.2227C55.4015 11.2227 57.8066 8.8175 57.8066 5.86133C57.8066 2.90515 55.4015 0.5 52.4453 0.5C49.4891 0.5 47.084 2.90515 47.084 5.86133C47.084 6.41794 47.1934 6.9443 47.3516 7.44925L41.1162 12.1246C40.2655 11.5563 39.2458 11.2227 38.1484 11.2227C35.1923 11.2227 32.7871 13.6278 32.7871 16.584C32.7871 17.4091 32.99 18.1817 33.3246 18.8807L26.1483 26.0571C25.4493 25.7224 24.6767 25.5195 23.8516 25.5195C22.4098 25.5195 21.1048 26.098 20.1405 27.0269L14.8504 24.3821C14.8769 24.1666 14.916 23.9549 14.916 23.7324C14.916 20.7762 12.5109 18.3711 9.55469 18.3711C6.59851 18.3711 4.19336 20.7762 4.19336 23.7324C4.19336 26.6886 6.59851 29.0938 9.55469 29.0938Z" fill="#054CE0" fill-opacity="0.2"/>
<path d="M59.7129 57.9258H57.8066V20.1582C57.8066 19.1706 57.0071 18.3711 56.0195 18.3711H48.8711C47.8835 18.3711 47.084 19.1706 47.084 20.1582V57.9258H43.5098V30.8809C43.5098 29.8933 42.7102 29.0938 41.7227 29.0938H34.5742C33.5867 29.0938 32.7871 29.8933 32.7871 30.8809V57.9258H29.2129V45.1777C29.2129 44.1902 28.4133 43.3906 27.4258 43.3906H20.2773C19.2898 43.3906 18.4902 44.1902 18.4902 45.1777V57.9258H14.916V38.0293C14.916 37.0417 14.1165 36.2422 13.1289 36.2422H5.98047C4.9929 36.2422 4.19336 37.0417 4.19336 38.0293V57.9258H2.28711C1.29955 57.9258 0.5 58.7253 0.5 59.7129C0.5 60.7005 1.29955 61.5 2.28711 61.5H59.7129C60.7005 61.5 61.5 60.7005 61.5 59.7129C61.5 58.7253 60.7005 57.9258 59.7129 57.9258Z" fill="#054CE0"/>
</g>
<defs>
<clipPath id="clip0_713_1074">
<rect width="61" height="61" fill="white" transform="translate(0.5 0.5)"/>
</clipPath>
</defs>
</svg>
