<svg width="49" height="45" viewBox="0 0 49 45" fill="none" xmlns="http://www.w3.org/2000/svg">
<path d="M6.68468 28.6875C11.1875 34.701 16.7111 41.8986 24.8886 42.4119C28.3299 42.6277 31.6778 41.3561 34.1567 38.9647C36.8865 36.3225 38.018 32.817 37.9247 29.0608C37.8605 26.5119 37.3822 23.928 36.5482 21.4841C34.2151 21.2916 31.8995 20.7083 29.8639 19.8451C26.5159 18.4278 21.7447 15.2139 23.3779 10.9094C24.1128 8.97876 26.0201 8.08636 28.0032 8.52381C30.0505 8.97876 31.8587 10.5653 33.2818 12.0351C35.3291 14.1524 36.8631 16.7188 37.9538 19.4543C38.4671 19.4601 38.9804 19.4485 39.4878 19.4193C41.3018 19.3085 43.2674 18.8827 44.6965 17.6928C46.1721 16.4563 46.6912 14.6015 46.6037 12.735C46.4054 8.61713 43.6291 4.83754 40.6661 2.18365C39.6862 1.30875 41.1327 -0.131932 42.1067 0.742974C45.2739 3.57184 47.9744 7.45059 48.546 11.7376C48.8027 13.6741 48.5927 15.7155 47.5778 17.4187C46.5221 19.186 44.7548 20.3175 42.8183 20.9067C41.5118 21.3033 40.1178 21.5074 38.7063 21.5483C38.8696 22.0849 39.0212 22.6215 39.1495 23.1639C40.2286 27.5909 40.5144 32.5429 38.3738 36.7016C36.6065 40.1488 33.3402 42.8085 29.6364 43.9167C24.8594 45.3457 19.7383 43.8642 15.702 41.1637C11.2867 38.2123 8.06704 33.9136 4.92321 29.714C4.13579 28.6642 5.9031 27.6493 6.68468 28.6875ZM35.1716 18.2061C34.3667 16.6429 33.3927 15.1614 32.2028 13.8607C31.0304 12.5775 29.5489 11.131 27.8516 10.5944C26.1601 10.0636 24.8886 11.2477 25.1277 12.9858C25.3669 14.7006 27.0175 15.9372 28.3765 16.7888C30.5755 18.1653 33.1069 18.976 35.6908 19.291C35.5216 18.9294 35.3525 18.5619 35.1716 18.2061Z" fill="#054CE0"/>
<path d="M1.80262 20.9008C6.78959 23.6013 9.88093 25.2286 13.8063 27.8475C14.2671 28.1567 14.4013 28.8158 14.1388 29.2532C13.8297 29.7665 12.9314 29.8248 12.459 29.5507C8.73772 27.3809 6.63794 26.191 2.33923 23.6363C2.44422 27.2176 2.45006 30.7989 2.33923 34.3743C2.2984 35.6867 0.361941 35.6342 0.303614 34.3218C0.105302 30.0056 0.216125 26.5118 0.245288 21.7407C0.251121 20.9591 1.14936 20.545 1.80262 20.9008Z" fill="#054CE0"/>
</svg>
