<svg width="109" height="21" viewBox="0 0 109 21" fill="none" xmlns="http://www.w3.org/2000/svg">
<path d="M7.5 16.24C6.43333 16.24 5.44667 16.0467 4.54 15.66C3.63333 15.2733 2.84 14.7333 2.16 14.04C1.48 13.3467 0.946667 12.5333 0.56 11.6C0.186667 10.6667 1.49012e-08 9.64667 1.49012e-08 8.54C1.49012e-08 7.43333 0.18 6.41333 0.54 5.48C0.913333 4.53333 1.43333 3.72 2.1 3.04C2.78 2.34667 3.57333 1.81333 4.48 1.44C5.38667 1.05333 6.37333 0.859999 7.44 0.859999C8.50667 0.859999 9.46 1.04 10.3 1.4C11.1533 1.76 11.8733 2.24 12.46 2.84C13.0467 3.42667 13.4667 4.07333 13.72 4.78L11.3 5.94C11.02 5.16667 10.5467 4.54 9.88 4.06C9.21333 3.58 8.4 3.34 7.44 3.34C6.50667 3.34 5.68 3.56 4.96 4C4.25333 4.44 3.7 5.04667 3.3 5.82C2.91333 6.59333 2.72 7.5 2.72 8.54C2.72 9.58 2.92 10.4933 3.32 11.28C3.73333 12.0533 4.3 12.66 5.02 13.1C5.74 13.54 6.56667 13.76 7.5 13.76C8.26 13.76 8.96 13.6133 9.6 13.32C10.24 13.0133 10.7533 12.5867 11.14 12.04C11.5267 11.48 11.72 10.82 11.72 10.06V8.92L12.96 10H7.44V7.7H14.44V9.2C14.44 10.3467 14.2467 11.36 13.86 12.24C13.4733 13.12 12.9467 13.86 12.28 14.46C11.6267 15.0467 10.8867 15.4933 10.06 15.8C9.23333 16.0933 8.38 16.24 7.5 16.24ZM21.2923 16.24C20.2257 16.24 19.2523 15.9933 18.3723 15.5C17.5057 15.0067 16.8123 14.3333 16.2923 13.48C15.7857 12.6267 15.5323 11.6533 15.5323 10.56C15.5323 9.46667 15.7857 8.49333 16.2923 7.64C16.8123 6.78667 17.5057 6.11333 18.3723 5.62C19.239 5.12667 20.2123 4.88 21.2923 4.88C22.359 4.88 23.3257 5.12667 24.1923 5.62C25.059 6.11333 25.7457 6.78667 26.2523 7.64C26.7723 8.48 27.0323 9.45333 27.0323 10.56C27.0323 11.6533 26.7723 12.6267 26.2523 13.48C25.7323 14.3333 25.039 15.0067 24.1723 15.5C23.3057 15.9933 22.3457 16.24 21.2923 16.24ZM21.2923 13.84C21.879 13.84 22.3923 13.7 22.8323 13.42C23.2857 13.14 23.639 12.7533 23.8923 12.26C24.159 11.7533 24.2923 11.1867 24.2923 10.56C24.2923 9.92 24.159 9.36 23.8923 8.88C23.639 8.38667 23.2857 8 22.8323 7.72C22.3923 7.42667 21.879 7.28 21.2923 7.28C20.6923 7.28 20.1657 7.42667 19.7123 7.72C19.259 8 18.899 8.38667 18.6323 8.88C18.379 9.36 18.2523 9.92 18.2523 10.56C18.2523 11.1867 18.379 11.7533 18.6323 12.26C18.899 12.7533 19.259 13.14 19.7123 13.42C20.1657 13.7 20.6923 13.84 21.2923 13.84ZM33.9392 16.24C32.8726 16.24 31.8992 15.9933 31.0192 15.5C30.1526 15.0067 29.4592 14.3333 28.9392 13.48C28.4326 12.6267 28.1792 11.6533 28.1792 10.56C28.1792 9.46667 28.4326 8.49333 28.9392 7.64C29.4592 6.78667 30.1526 6.11333 31.0192 5.62C31.8859 5.12667 32.8592 4.88 33.9392 4.88C35.0059 4.88 35.9726 5.12667 36.8392 5.62C37.7059 6.11333 38.3926 6.78667 38.8992 7.64C39.4192 8.48 39.6792 9.45333 39.6792 10.56C39.6792 11.6533 39.4192 12.6267 38.8992 13.48C38.3792 14.3333 37.6859 15.0067 36.8192 15.5C35.9526 15.9933 34.9926 16.24 33.9392 16.24ZM33.9392 13.84C34.5259 13.84 35.0392 13.7 35.4792 13.42C35.9326 13.14 36.2859 12.7533 36.5392 12.26C36.8059 11.7533 36.9392 11.1867 36.9392 10.56C36.9392 9.92 36.8059 9.36 36.5392 8.88C36.2859 8.38667 35.9326 8 35.4792 7.72C35.0392 7.42667 34.5259 7.28 33.9392 7.28C33.3392 7.28 32.8126 7.42667 32.3592 7.72C31.9059 8 31.5459 8.38667 31.2792 8.88C31.0259 9.36 30.8992 9.92 30.8992 10.56C30.8992 11.1867 31.0259 11.7533 31.2792 12.26C31.5459 12.7533 31.9059 13.14 32.3592 13.42C32.8126 13.7 33.3392 13.84 33.9392 13.84ZM46.5461 20.4C45.7328 20.4 44.9794 20.2667 44.2861 20C43.5928 19.7333 42.9928 19.36 42.4861 18.88C41.9928 18.4133 41.6328 17.86 41.4061 17.22L43.8461 16.3C44.0061 16.8067 44.3194 17.2133 44.7861 17.52C45.2661 17.84 45.8528 18 46.5461 18C47.0794 18 47.5461 17.9 47.9461 17.7C48.3594 17.5 48.6794 17.2067 48.9061 16.82C49.1328 16.4467 49.2461 15.9933 49.2461 15.46V12.98L49.7461 13.58C49.3728 14.2333 48.8728 14.7267 48.2461 15.06C47.6194 15.3933 46.9061 15.56 46.1061 15.56C45.0928 15.56 44.1861 15.3267 43.3861 14.86C42.5861 14.3933 41.9594 13.7533 41.5061 12.94C41.0528 12.1267 40.8261 11.2133 40.8261 10.2C40.8261 9.17333 41.0528 8.26 41.5061 7.46C41.9594 6.66 42.5794 6.03333 43.3661 5.58C44.1528 5.11333 45.0461 4.88 46.0461 4.88C46.8594 4.88 47.5728 5.05333 48.1861 5.4C48.8128 5.73333 49.3328 6.22 49.7461 6.86L49.3861 7.52V5.12H51.8661V15.46C51.8661 16.4067 51.6328 17.2533 51.1661 18C50.7128 18.7467 50.0861 19.3333 49.2861 19.76C48.4994 20.1867 47.5861 20.4 46.5461 20.4ZM46.4261 13.14C46.9861 13.14 47.4728 13.02 47.8861 12.78C48.3128 12.5267 48.6461 12.18 48.8861 11.74C49.1261 11.3 49.2461 10.7933 49.2461 10.22C49.2461 9.66 49.1194 9.16 48.8661 8.72C48.6261 8.26667 48.2928 7.91333 47.8661 7.66C47.4528 7.40667 46.9728 7.28 46.4261 7.28C45.8794 7.28 45.3861 7.40667 44.9461 7.66C44.5061 7.91333 44.1594 8.26667 43.9061 8.72C43.6661 9.16 43.5461 9.66 43.5461 10.22C43.5461 10.78 43.6661 11.28 43.9061 11.72C44.1594 12.16 44.4994 12.5067 44.9261 12.76C45.3661 13.0133 45.8661 13.14 46.4261 13.14ZM53.913 16V0.859999H56.533V16H53.913ZM63.712 16.24C62.592 16.24 61.612 15.9867 60.772 15.48C59.932 14.9733 59.2787 14.2867 58.812 13.42C58.3454 12.5533 58.112 11.5933 58.112 10.54C58.112 9.44667 58.3454 8.48 58.812 7.64C59.292 6.78667 59.9387 6.11333 60.752 5.62C61.5787 5.12667 62.4987 4.88 63.512 4.88C64.3654 4.88 65.112 5.02 65.752 5.3C66.4054 5.58 66.9587 5.96667 67.412 6.46C67.8654 6.95333 68.212 7.52 68.452 8.16C68.692 8.78667 68.812 9.46667 68.812 10.2C68.812 10.3867 68.7987 10.58 68.772 10.78C68.7587 10.98 68.7254 11.1533 68.672 11.3H60.272V9.3H67.192L65.952 10.24C66.072 9.62667 66.0387 9.08 65.852 8.6C65.6787 8.12 65.3854 7.74 64.972 7.46C64.572 7.18 64.0854 7.04 63.512 7.04C62.9654 7.04 62.4787 7.18 62.052 7.46C61.6254 7.72667 61.2987 8.12667 61.072 8.66C60.8587 9.18 60.7787 9.81333 60.832 10.56C60.7787 11.2267 60.8654 11.82 61.092 12.34C61.332 12.8467 61.6787 13.24 62.132 13.52C62.5987 13.8 63.132 13.94 63.732 13.94C64.332 13.94 64.8387 13.8133 65.252 13.56C65.6787 13.3067 66.012 12.9667 66.252 12.54L68.372 13.58C68.1587 14.1 67.8254 14.56 67.372 14.96C66.9187 15.36 66.3787 15.6733 65.752 15.9C65.1387 16.1267 64.4587 16.24 63.712 16.24ZM72.5528 16L77.6928 1.1H81.2128L86.3528 16H83.3928L82.3328 12.8H76.5728L75.4928 16H72.5528ZM77.3528 10.4H81.5528L79.0728 2.98H79.8328L77.3528 10.4ZM92.0605 16.24C91.0071 16.24 90.0671 15.9933 89.2405 15.5C88.4138 14.9933 87.7605 14.3067 87.2805 13.44C86.8005 12.5733 86.5605 11.6133 86.5605 10.56C86.5605 9.49333 86.8005 8.53333 87.2805 7.68C87.7605 6.82667 88.4138 6.14667 89.2405 5.64C90.0805 5.13333 91.0138 4.88 92.0405 4.88C92.8671 4.88 93.6005 5.04667 94.2405 5.38C94.8938 5.7 95.4071 6.15333 95.7805 6.74L95.3805 7.28V0.859999H98.0005V16H95.5205V13.9L95.8005 14.42C95.4271 15.0067 94.9071 15.46 94.2405 15.78C93.5738 16.0867 92.8471 16.24 92.0605 16.24ZM92.3405 13.84C92.9405 13.84 93.4671 13.7 93.9205 13.42C94.3738 13.14 94.7271 12.7533 94.9805 12.26C95.2471 11.7667 95.3805 11.2 95.3805 10.56C95.3805 9.93333 95.2471 9.37333 94.9805 8.88C94.7271 8.37333 94.3738 7.98 93.9205 7.7C93.4671 7.42 92.9405 7.28 92.3405 7.28C91.7538 7.28 91.2271 7.42667 90.7605 7.72C90.2938 8 89.9271 8.38667 89.6605 8.88C89.4071 9.36 89.2805 9.92 89.2805 10.56C89.2805 11.2 89.4071 11.7667 89.6605 12.26C89.9271 12.7533 90.2938 13.14 90.7605 13.42C91.2271 13.7 91.7538 13.84 92.3405 13.84ZM104.178 16.24C103.018 16.24 102.005 15.9667 101.138 15.42C100.285 14.86 99.698 14.1067 99.378 13.16L101.338 12.22C101.618 12.8333 102.005 13.3133 102.498 13.66C103.005 14.0067 103.565 14.18 104.178 14.18C104.658 14.18 105.038 14.0733 105.318 13.86C105.598 13.6467 105.738 13.3667 105.738 13.02C105.738 12.8067 105.678 12.6333 105.558 12.5C105.451 12.3533 105.298 12.2333 105.098 12.14C104.911 12.0333 104.705 11.9467 104.478 11.88L102.698 11.38C101.778 11.1133 101.078 10.7067 100.598 10.16C100.131 9.61333 99.898 8.96667 99.898 8.22C99.898 7.55333 100.065 6.97333 100.398 6.48C100.745 5.97333 101.218 5.58 101.818 5.3C102.431 5.02 103.131 4.88 103.918 4.88C104.945 4.88 105.851 5.12667 106.638 5.62C107.425 6.11333 107.985 6.80667 108.318 7.7L106.318 8.64C106.131 8.14667 105.818 7.75333 105.378 7.46C104.938 7.16667 104.445 7.02 103.898 7.02C103.458 7.02 103.111 7.12 102.858 7.32C102.605 7.52 102.478 7.78 102.478 8.1C102.478 8.3 102.531 8.47333 102.638 8.62C102.745 8.76667 102.891 8.88667 103.078 8.98C103.278 9.07333 103.505 9.16 103.758 9.24L105.498 9.76C106.391 10.0267 107.078 10.4267 107.558 10.96C108.051 11.4933 108.298 12.1467 108.298 12.92C108.298 13.5733 108.125 14.1533 107.778 14.66C107.431 15.1533 106.951 15.54 106.338 15.82C105.725 16.1 105.005 16.24 104.178 16.24Z" fill="#05173D"/>
</svg>
