<svg width="48" height="48" viewBox="0 0 48 48" fill="none" xmlns="http://www.w3.org/2000/svg">
<rect width="48" height="48" rx="24" fill="white"/>
<g clip-path="url(#clip0_713_1052)">
<path d="M39.2626 21.6886L26.2101 21.688C25.6337 21.688 25.1665 22.1551 25.1665 22.7315V26.9012C25.1665 27.4774 25.6337 27.9447 26.21 27.9447H33.5604C32.7555 30.0335 31.2533 31.7828 29.3366 32.8943L32.4708 38.3199C37.4984 35.4122 40.4708 30.3104 40.4708 24.5993C40.4708 23.7861 40.4109 23.2048 40.291 22.5502C40.1999 22.0529 39.7681 21.6886 39.2626 21.6886Z" fill="#167EE6"/>
<path d="M24.4709 34.2097C20.8738 34.2097 17.7335 32.2443 16.047 29.336L10.6216 32.4631C13.3825 37.2483 18.5546 40.4706 24.4709 40.4706C27.3732 40.4706 30.1118 39.6891 32.4709 38.3273V38.3199L29.3367 32.8943C27.9031 33.7258 26.2441 34.2097 24.4709 34.2097Z" fill="#12B347"/>
<path d="M32.4707 38.3273V38.3199L29.3365 32.8943C27.9029 33.7257 26.244 34.2097 24.4707 34.2097V40.4706C27.373 40.4706 30.1117 39.6891 32.4707 38.3273Z" fill="#0F993E"/>
<path d="M14.7316 24.4706C14.7316 22.6975 15.2155 21.0387 16.0468 19.6051L10.6214 16.478C9.25208 18.8297 8.4707 21.5608 8.4707 24.4706C8.4707 27.3803 9.25208 30.1114 10.6214 32.4631L16.0468 29.336C15.2155 27.9024 14.7316 26.2436 14.7316 24.4706Z" fill="#FFD639"/>
<path d="M24.4709 14.7314C26.8166 14.7314 28.9712 15.5649 30.6541 16.9514C31.0693 17.2934 31.6728 17.2687 32.0531 16.8884L35.0075 13.934C35.439 13.5025 35.4082 12.7962 34.9473 12.3963C32.1276 9.95013 28.4588 8.47057 24.4709 8.47057C18.5546 8.47057 13.3825 11.6929 10.6216 16.478L16.047 19.6051C17.7335 16.6968 20.8738 14.7314 24.4709 14.7314Z" fill="#FF4B26"/>
<path d="M30.654 16.9514C31.0691 17.2934 31.6726 17.2687 32.0529 16.8884L35.0073 13.934C35.4387 13.5025 35.408 12.7962 34.9471 12.3963C32.1274 9.95007 28.4586 8.47057 24.4707 8.47057V14.7314C26.8163 14.7314 28.971 15.5649 30.654 16.9514Z" fill="#D93F21"/>
</g>
<defs>
<clipPath id="clip0_713_1052">
<rect width="32" height="32" fill="white" transform="translate(8.4707 8.47057)"/>
</clipPath>
</defs>
</svg>
