<svg width="25" height="80" viewBox="0 0 25 80" fill="none" xmlns="http://www.w3.org/2000/svg">
<g clip-path="url(#clip0_3019_29)">
<path fill-rule="evenodd" clip-rule="evenodd" d="M-329 -136C-337.836 -136 -345 -128.837 -345 -120V-136H-329ZM9 -136C17.8364 -136 25 -128.837 25 -120V-136H9ZM25 -0.363281C25 8.22852 17.5732 14.9365 10.7646 20.1768C4.82666 24.748 1 31.9268 1 40C1 48.0732 4.82666 55.252 10.7646 59.8232C17.5732 65.0635 25 71.7715 25 80.3633V-0.363281ZM25 200C25 208.837 17.8364 216 9 216H25V200ZM-329 216C-337.836 216 -345 208.837 -345 200V216H-329ZM-345 81C-345 72.1631 -337.154 65.3369 -330.07 60.0547C-323.958 55.4961 -320 48.2109 -320 40C-320 31.7891 -323.958 24.5039 -330.07 19.9453C-337.154 14.6631 -345 7.83691 -345 -1V81Z" fill="black"/>
</g>
<defs>
<clipPath id="clip0_3019_29">
<rect width="25" height="80" fill="white"/>
</clipPath>
</defs>
</svg>
