<svg width="48" height="53" viewBox="0 0 48 53" fill="none" xmlns="http://www.w3.org/2000/svg">
<g clip-path="url(#clip0_453_2401)">
<path d="M24.5187 35.7168L8.92875 45.4971L15.3419 27.4553L6.16504 11.0066L23.4558 18.0456L39.0104 8.07995L32.6681 26.0846L41.6324 42.5704L24.5187 35.7168Z" fill="white"/>
<path d="M12.2951 16.4899L23.7042 21.1579L33.8731 14.6377L29.763 26.3814L35.6447 37.236L24.2356 32.6793L14.0313 39.0884L18.2477 27.2335L12.2597 16.527M0.000242108 5.56116L7.68894 19.3426L12.4014 27.7893L9.0708 37.199L3.79146 52.0547L16.795 43.9044L24.7672 38.9031L33.7313 42.4967L47.5852 48.0166L40.2508 34.5317L35.5738 25.9369L38.8335 16.6381L44.1129 1.63431L31.0741 9.96972L23.1727 15.0451L14.2084 11.3775L0.00024211 5.5983L0.000242108 5.56116Z" fill="#05173D"/>
</g>
<defs>
<clipPath id="clip0_453_2401">
<rect width="51.8145" height="47.9764" fill="white" transform="translate(0 52.0547) rotate(-90)"/>
</clipPath>
</defs>
</svg>
