<svg width="143" height="142" viewBox="0 0 143 142" fill="none" xmlns="http://www.w3.org/2000/svg">
<path d="M130.93 63.7286C134.608 63.3278 137.95 65.988 137.981 69.6873C138.092 82.6205 134.454 95.3628 127.436 106.34C119.211 119.206 106.836 128.876 92.3628 133.746C77.8896 138.616 62.1867 138.395 47.8564 133.119C35.6297 128.617 25.0286 120.666 17.2982 110.297C15.087 107.331 16.1406 103.192 19.3124 101.288C22.4842 99.3838 26.568 100.444 28.8526 103.353C34.9579 111.129 43.1262 117.101 52.4851 120.547C63.9493 124.768 76.5116 124.945 88.0903 121.049C99.6689 117.153 109.569 109.417 116.149 99.1242C121.521 90.7215 124.417 81.0263 124.58 71.1414C124.641 67.4425 127.253 64.1294 130.93 63.7286Z" fill="#F44454"/>
<path d="M17.883 98.7711C14.6235 100.521 10.5287 99.3066 9.11326 95.8886C6.11298 88.6437 4.40139 80.9115 4.07426 73.042C3.65417 62.9363 5.52813 52.8666 9.5555 43.5885C13.5829 34.3104 19.6591 26.0648 27.3283 19.4704C33.3004 14.3352 40.1177 10.3052 47.4591 7.54925C50.9225 6.24911 54.6058 8.4112 55.5536 11.9871C56.5015 15.563 54.3489 19.1915 50.9191 20.5778C45.5209 22.7598 40.5001 25.8127 36.0627 29.6283C29.9273 34.9038 25.0663 41.5003 21.8444 48.9228C18.6225 56.3452 17.1234 64.401 17.4594 72.4856C17.7025 78.3329 18.901 84.0854 20.9936 89.5189C22.3231 92.9711 21.1425 97.0216 17.883 98.7711Z" fill="#054CE0"/>
<path d="M57.8959 11.4165C57.0917 7.80551 59.3668 4.19087 63.04 3.75121C72.1541 2.66031 81.4201 3.45165 90.2574 6.10418C99.0946 8.75671 107.265 13.199 114.272 19.1286C117.096 21.5184 117.004 25.7884 114.344 28.3597C111.684 30.9309 107.467 30.8208 104.584 28.5024C99.2147 24.1841 93.0457 20.9283 86.406 18.9354C79.7664 16.9425 72.8241 16.2628 65.9642 16.9104C62.2811 17.2581 58.7001 15.0274 57.8959 11.4165Z" fill="#054CE0"/>
<path d="M116.552 30.7757C119.349 28.3539 123.61 28.6405 125.741 31.6648C130.297 38.1318 133.671 45.3556 135.708 52.9997C136.66 56.5744 134.145 60.0266 130.493 60.6172C126.841 61.2079 123.443 58.7078 122.401 55.158C120.873 49.9482 118.562 45.0003 115.547 40.4849C113.492 37.4083 113.756 33.1975 116.552 30.7757Z" fill="#F44454"/>
</svg>
