<svg width="80" height="24" viewBox="0 0 80 24" fill="none" xmlns="http://www.w3.org/2000/svg">
<path d="M24.0054 0.863251H20.3862V23.1605H24.0054V0.863251Z" fill="white"/>
<path d="M36.674 16.0471C36.674 19.4595 33.7633 19.7315 32.8974 19.7315C30.7341 19.7315 30.3406 17.7354 30.3406 16.5314V7.9978H26.7214V16.5135C26.7214 18.6273 27.3946 20.3719 28.5744 21.5349C29.6167 22.5633 31.1784 23.1251 32.8702 23.1251C34.07 23.1251 35.7692 22.7568 36.674 21.9425V23.16H40.2931V7.9978H36.674V16.0471Z" fill="white"/>
<path d="M47.5285 2.64685H43.9094V7.9982H41.1951V11.5658H43.9094V23.1603H47.5285V11.5658H50.2428V7.9982H47.5285V2.64685Z" fill="white"/>
<path d="M61.6398 18.6308C60.8518 19.3292 59.8112 19.7163 58.6694 19.7163C56.1524 19.7163 54.3039 17.8941 54.3039 15.3923C54.3039 12.8906 56.0935 11.1452 58.6694 11.1452C59.7914 11.1452 60.8518 11.5135 61.6597 12.2119L62.2089 12.6774L64.6491 10.2729L64.0384 9.72971C62.6025 8.45169 60.6962 7.73459 58.6686 7.73459C54.1446 7.73459 50.8594 10.9526 50.8594 15.3736C50.8594 19.776 54.2234 23.1089 58.6686 23.1089C60.7342 23.1089 62.6604 22.3919 64.0782 21.0933L64.6681 20.5502L62.19 18.1474L61.6398 18.6308Z" fill="white"/>
<path d="M77.5679 9.32012C76.5255 8.2927 75.3041 7.73081 73.6121 7.73081C72.4124 7.73081 71.0535 8.0992 70.1487 8.91257V0.863251H66.5295V23.1605H70.1487V14.808C70.1487 11.3956 72.6079 11.1245 73.4737 11.1245C75.637 11.1245 75.5773 13.1214 75.5773 14.3236V23.1605H79.1964V14.3424C79.1964 12.2287 78.7485 10.484 77.5679 9.32012Z" fill="white"/>
<path d="M58.5533 12.8564C59.9991 12.8564 61.1708 14.0096 61.1708 15.4357C61.1708 16.8601 59.9991 18.0151 58.5533 18.0151C57.1083 18.0151 55.9375 16.8601 55.9375 15.4357C55.9384 14.0105 57.1092 12.8564 58.5533 12.8564Z" fill="white"/>
<path d="M15.3195 17.5627C13.9433 18.9585 12.074 19.7149 10.1071 19.7149C6.0754 19.7149 3.14392 16.5933 3.14392 12.3086C3.14392 8.00438 6.0754 4.88276 10.1071 4.88276C12.055 4.88276 13.9036 5.63816 15.3005 7.01525L15.8506 7.55844L18.27 5.1735L17.7389 4.63032C15.733 2.59409 13.0187 1.48999 10.1071 1.48999C4.16723 1.48999 -0.297852 6.14295 -0.297852 12.3273C-0.297852 18.493 4.18713 23.1273 10.1071 23.1273C13.0385 23.1273 15.7529 22.0035 17.7588 19.9673L18.2899 19.4241L15.8905 17.0008L15.3195 17.5627Z" fill="white"/>
</svg>
