<svg width="92" height="30" viewBox="0 0 92 30" fill="none" xmlns="http://www.w3.org/2000/svg">
<mask id="mask0_453_2443" style="mask-type:luminance" maskUnits="userSpaceOnUse" x="0" y="0" width="93" height="30">
<path d="M92.0037 0.432007H0.61792V29.0662H92.0037V0.432007Z" fill="white"/>
</mask>
<g mask="url(#mask0_453_2443)">
<path d="M12.0493 10.647V13.7056H19.4307C19.2348 15.3976 18.6468 16.6992 17.7323 17.5452C16.6871 18.5864 14.9888 19.7578 12.0493 19.7578C7.54207 19.7578 4.01467 16.1134 4.01467 11.6231C4.01467 7.13278 7.47675 3.48843 12.0493 3.48843C14.4663 3.48843 16.2953 4.46452 17.6016 5.70103L19.7573 3.55351C17.9283 1.79636 15.4461 0.429688 12.0493 0.429688C5.8437 0.429688 0.61792 5.44071 0.61792 11.6231C0.61792 17.8055 5.8437 22.8164 12.0493 22.8164C15.3808 22.8164 17.9283 21.7102 19.888 19.6927C21.913 17.6754 22.5661 14.8119 22.5661 12.5342C22.5661 11.8183 22.5008 11.1676 22.4355 10.647H12.0493Z" fill="white"/>
<path d="M31.7122 8.11023C27.7275 8.11023 24.396 11.169 24.396 15.3339C24.396 19.4988 27.6622 22.5575 31.7122 22.5575C35.7621 22.5575 39.0282 19.5639 39.0282 15.3989C39.0282 11.169 35.7621 8.11023 31.7122 8.11023ZM31.7122 19.7592C29.4912 19.7592 27.5969 17.937 27.5969 15.3989C27.5969 12.7959 29.4912 11.0388 31.7122 11.0388C33.9331 11.0388 35.8274 12.7959 35.8274 15.3989C35.8274 17.937 33.9331 19.7592 31.7122 19.7592Z" fill="white"/>
<path d="M67.4441 9.73722H67.3135C66.5949 8.89118 65.2231 8.11023 63.4595 8.11023C59.8014 8.11023 56.666 11.234 56.666 15.3339C56.666 19.3687 59.8014 22.5575 63.4595 22.5575C65.2231 22.5575 66.5949 21.7766 67.3135 20.9306H67.4441V21.9719C67.4441 24.7051 65.9418 26.2018 63.5901 26.2018C61.6304 26.2018 60.4546 24.8353 59.9321 23.5988L57.1886 24.7702C57.9724 26.6574 60.1281 29.0653 63.6554 29.0653C67.3788 29.0653 70.5796 26.8526 70.5796 21.5163V8.50071H67.5748V9.73722H67.4441ZM63.7861 19.7592C61.5651 19.7592 59.9321 17.872 59.9321 15.3989C59.9321 12.8609 61.6304 11.0388 63.7861 11.0388C65.9417 11.0388 67.6401 12.926 67.6401 15.464C67.7054 17.937 66.0071 19.7592 63.7861 19.7592Z" fill="white"/>
<path d="M47.9755 8.11023C43.9909 8.11023 40.6594 11.169 40.6594 15.3339C40.6594 19.4988 43.9255 22.5575 47.9755 22.5575C52.0255 22.5575 55.2916 19.5639 55.2916 15.3989C55.2916 11.169 52.0255 8.11023 47.9755 8.11023ZM47.9755 19.7592C45.7545 19.7592 43.8602 17.937 43.8602 15.3989C43.8602 12.7959 45.7545 11.0388 47.9755 11.0388C50.1964 11.0388 52.0908 12.7959 52.0908 15.3989C52.0908 17.937 50.1964 19.7592 47.9755 19.7592Z" fill="white"/>
<path d="M72.9954 0.754974H76.1308V22.6211H72.9954V0.754974Z" fill="white"/>
<path d="M85.7995 19.7592C84.1663 19.7592 83.0559 19.0433 82.272 17.5466L92.005 13.5768L91.6785 12.7308C91.0905 11.1039 89.1962 8.11023 85.4728 8.11023C81.7495 8.11023 78.614 11.0388 78.614 15.3339C78.614 19.3687 81.6841 22.5575 85.7995 22.5575C89.1308 22.5575 91.0252 20.5401 91.8744 19.3687L89.3921 17.7418C88.543 18.9782 87.4325 19.7592 85.7995 19.7592ZM85.6035 10.8436C86.91 10.8436 88.0203 11.4943 88.347 12.4054L81.8148 15.1386C81.7495 12.1451 83.9705 10.8436 85.6035 10.8436Z" fill="white"/>
</g>
</svg>
