<svg width="61" height="61" viewBox="0 0 61 61" fill="none" xmlns="http://www.w3.org/2000/svg">
<g clip-path="url(#clip0_1110_1022)">
<path d="M16.4202 8.68182L8.92015 13.4545L7.55652 14.1364V43.4545L8.92015 46.1818L28.0111 57.0909L32.7838 58.4545V29.8182L38.9202 24.3636L51.8747 15.5L45.0565 11.4091L36.8747 5.95455L30.0565 2.54546H27.3292L16.4202 8.68182Z" fill="#F44454"/>
<path d="M54.156 15.8288C54.156 15.587 54.1325 15.1441 53.5778 14.8318C53.5702 14.8273 29.183 0.656641 29.183 0.656641C28.826 0.448047 28.3843 0.448047 28.0269 0.654414L7.398 12.5644C7.15214 12.7066 6.81698 12.9232 6.82108 13.5626C6.82108 13.5674 6.91003 45.179 6.91003 45.179C6.91108 45.5895 7.12987 45.9678 7.48472 46.1726L31.8801 60.3493C32.5686 60.6579 32.9111 60.4275 33.2506 60.2323L43.3549 54.398C43.713 54.1905 43.9331 53.809 43.9319 53.395L43.8673 30.3593L53.6014 24.7391C53.96 24.5321 54.1797 24.15 54.1788 23.7366L54.156 15.8288ZM9.21569 44.511L9.13448 15.572L31.2212 28.4079L31.304 57.346L9.21569 44.511ZM28.6017 2.98738L50.7002 15.8288L32.3751 26.4088L10.2773 13.5674L28.6017 2.98738ZM51.8682 23.7366L51.8682 23.0747L42.1346 28.6946C41.7757 28.9021 41.5563 29.2837 41.5572 29.6976L41.6214 52.7336L41.618 51.5L41.5591 30.3593L51.8682 23.7366Z" fill="#054CE0"/>
</g>
<defs>
<clipPath id="clip0_1110_1022">
<rect width="60" height="60" fill="white" transform="translate(0.5 0.5)"/>
</clipPath>
</defs>
</svg>
